<svg xmlns="http://www.w3.org/2000/svg" width="65.057" height="65.005" viewBox="0 0 65.057 65.005">
  <g id="Grupo_217" data-name="Grupo 217" transform="translate(2581.171 842.769) rotate(180)">
    <path id="Trazado_278" data-name="Trazado 278" d="M2548.643,777.767c17.775-.259,32.578,14.715,32.528,32.567a32.529,32.529,0,1,1-65.057-.253C2516.2,792.4,2530.9,777.516,2548.643,777.767Zm27.741,32.557a27.741,27.741,0,1,0-27.793,27.657A27.891,27.891,0,0,0,2576.384,810.324Z" fill="#fff"/>
    <path id="Trazado_279" data-name="Trazado 279" d="M2631.221,894.571c0-2.356.1-4.716-.028-7.065-.12-2.273.619-3.126,3.4-3.279,2.465-.135,3.536,1.02,3.54,3.483.008,4.542-.015,9.085.012,13.628.008,1.419-.292,2.618-1.783,3.126a4.463,4.463,0,0,1-4.529-.61,1.993,1.993,0,0,1-.618-1.712C2631.228,899.619,2631.222,897.1,2631.221,894.571Z" transform="translate(-85.958 -79.523)" fill="#fff"/>
    <path id="Trazado_280" data-name="Trazado 280" d="M2634.08,844.819a3.384,3.384,0,0,1,3.54,3.18,3.539,3.539,0,0,1-3.605,3.171,3.494,3.494,0,0,1-3.594-3.3A3.413,3.413,0,0,1,2634.08,844.819Z" transform="translate(-85.389 -50.092)" fill="#fff"/>
  </g>
</svg>
