<?xml version="1.0" encoding="UTF-8"?>
<svg id="Capa_2" data-name="Capa 2" xmlns="http://www.w3.org/2000/svg" viewBox="0 0 99.9 99.88">
  <defs>
    <style>
      .cls-1 {
        fill: #fff;
      }
    </style>
  </defs>
  <g id="Capa_2-2" data-name="Capa 2">
    <g id="Grupo_80" data-name="Grupo 80">
      <g id="Grupo_78" data-name="Grupo 78">
        <path id="Trazado_172" data-name="Trazado 172" class="cls-1" d="M50.21,67.88c-10.22,0-18.5-8.28-18.5-18.5s8.28-18.5,18.5-18.5c10.22,0,18.5,8.28,18.5,18.5h0c-.01,10.21-8.29,18.49-18.5,18.5Zm0-34.92c-9.07,0-16.42,7.35-16.42,16.42s7.35,16.42,16.42,16.42c9.07,0,16.42-7.35,16.42-16.42,0-9.06-7.35-16.41-16.42-16.42Z"/>
      </g>
      <g id="Grupo_79" data-name="Grupo 79">
        <path id="Trazado_173" data-name="Trazado 173" class="cls-1" d="M54.41,99.88h-9.6c-1.72,0-3.21-1.21-3.58-2.89l-2.25-10.45c-.1-.48-.44-.86-.9-1.02-1.77-.6-3.5-1.32-5.17-2.17-.42-.21-.92-.19-1.33,.06l-9.32,5.56c-1.44,.86-3.28,.63-4.47-.56l-6.79-6.79c-1.21-1.22-1.42-3.12-.49-4.57l5.72-8.86c.27-.41,.3-.94,.08-1.38-.88-1.71-1.63-3.49-2.24-5.31-.15-.46-.53-.81-1-.93l-10.31-2.6C1.14,57.54,0,56.08,0,54.4v-9.6c0-1.72,1.21-3.21,2.89-3.58l9.88-2.13c.5-.11,.9-.49,1.05-.98,.62-1.99,1.4-3.93,2.34-5.79,.22-.43,.21-.94-.04-1.36l-5.19-8.71c-.86-1.44-.63-3.28,.55-4.47l6.79-6.79c1.22-1.21,3.12-1.42,4.57-.49l8.08,5.22c.43,.27,.98,.29,1.43,.05,2.02-1.07,4.12-1.96,6.3-2.65,.45-.15,.8-.52,.91-.98l2.37-9.37C42.35,1.14,43.81,0,45.49,0h9.6c1.72,0,3.21,1.21,3.58,2.89l1.97,9.15c.1,.49,.46,.88,.93,1.03,2.27,.71,4.47,1.63,6.56,2.75,.43,.22,.94,.21,1.35-.04l8.16-4.87c1.44-.86,3.28-.63,4.47,.56l6.79,6.79c1.21,1.22,1.41,3.12,.49,4.57l-5.15,7.99c-.27,.42-.29,.95-.06,1.4,1.04,2.05,1.89,4.19,2.54,6.39,.14,.47,.52,.82,1,.94l9.43,2.38c1.63,.41,2.77,1.87,2.77,3.55v9.6c0,1.72-1.21,3.21-2.89,3.58l-9.73,2.1c-.49,.11-.88,.46-1.03,.94-.77,2.25-1.74,4.42-2.91,6.48l5.65,9.46c.86,1.44,.63,3.28-.56,4.47l-6.79,6.79c-1.22,1.21-3.12,1.41-4.57,.49l-8.77-5.66c-.41-.27-.92-.3-1.36-.09-1.74,.85-3.54,1.57-5.39,2.14-.47,.14-.84,.52-.96,1l-2.62,10.36c-.42,1.61-1.87,2.74-3.54,2.74Zm-22.11-18.95c.57,0,1.13,.14,1.64,.4,1.57,.8,3.19,1.48,4.86,2.04,1.22,.41,2.13,1.44,2.4,2.69l2.25,10.45c.14,.64,.71,1.1,1.37,1.1h9.6c.64,0,1.2-.43,1.35-1.05l2.62-10.36c.31-1.24,1.25-2.23,2.48-2.6,1.74-.54,3.43-1.22,5.06-2.02,1.16-.56,2.52-.47,3.6,.22l8.77,5.66c.55,.36,1.28,.28,1.75-.19l6.79-6.79c.45-.45,.54-1.15,.21-1.7l-6.15-10.3v-.62l.16-.27c1.24-2.1,2.27-4.33,3.06-6.64,.42-1.22,1.44-2.13,2.69-2.42l9.73-2.1c.64-.14,1.1-.71,1.1-1.37v-9.6c0-.64-.44-1.2-1.05-1.35l-9.43-2.38c-1.25-.31-2.24-1.26-2.61-2.49-.61-2.07-1.41-4.07-2.39-5.99-.59-1.17-.52-2.56,.18-3.66l5.15-7.99c.36-.55,.28-1.28-.19-1.75l-6.79-6.79c-.45-.45-1.15-.54-1.7-.21l-8.16,4.87c-1.1,.65-2.45,.69-3.58,.09-1.97-1.06-4.04-1.93-6.17-2.6-1.25-.4-2.19-1.43-2.47-2.72l-1.97-9.15c-.14-.64-.71-1.1-1.37-1.1h-9.6c-.64,0-1.2,.43-1.35,1.05l-2.37,9.37c-.31,1.22-1.22,2.21-2.42,2.6-2.04,.65-4.03,1.48-5.92,2.49-1.18,.63-2.6,.57-3.72-.15l-8.08-5.22c-.55-.36-1.28-.28-1.75,.19l-6.79,6.79c-.45,.45-.54,1.15-.21,1.7l5.19,8.71c.65,1.08,.69,2.42,.12,3.54-.88,1.75-1.62,3.57-2.2,5.45-.39,1.27-1.43,2.23-2.73,2.52l-9.88,2.13c-.64,.14-1.1,.71-1.1,1.37v9.6c0,.64,.44,1.2,1.05,1.35l10.31,2.6c1.22,.31,2.19,1.22,2.58,2.41,.57,1.72,1.28,3.39,2.11,4.99,.59,1.16,.51,2.55-.2,3.64l-5.72,8.87c-.36,.55-.28,1.28,.19,1.75l6.79,6.79c.45,.45,1.16,.54,1.71,.21l9.32-5.56c.57-.35,1.22-.53,1.89-.54h0Z"/>
      </g>
    </g>
  </g>
</svg>