<?xml version="1.0" encoding="utf-8"?>
<!-- Generator: Adobe Illustrator 27.3.1, SVG Export Plug-In . SVG Version: 6.00 Build 0)  -->
<svg version="1.1" id="Capa_2_00000119810724450714335530000007026257538337285528_"
	 xmlns="http://www.w3.org/2000/svg" xmlns:xlink="http://www.w3.org/1999/xlink" x="0px" y="0px" viewBox="0 0 103.8 103.7"
	 style="enable-background:new 0 0 103.8 103.7;" xml:space="preserve">
<style type="text/css">
	.st0{fill:#FFFFFF;}
	.st1{clip-path:url(#SVGID_00000081636187268286905250000010945558008906809504_);}
</style>
<g id="Capa_2-2">
	<g id="Grupo_89">
		<g id="Grupo_87">
			<path id="Trazado_176" class="st0" d="M-127.2,19.8L-127.2,19.8l-0.2,0.1L-127.2,19.8z"/>
		</g>
		<g id="Grupo_88">
			<path id="Trazado_177" class="st0" d="M-74.5,54.6V41.2c0.2-4.2-2.8-8-6.9-8.8l-6.6-21.9c-0.4-1.6-1.5-3-3-3.8
				c-1.4-0.8-3-0.8-4.5-0.2L-127.8,20h-34.8c-3.9,0.3-6.8,3.6-6.6,7.5v69.8c-0.3,4.6,3.2,8.5,7.8,8.8h79.1c4.6-0.3,8-4.2,7.8-8.8
				V84.4c3.2-0.8,5.5-3.8,5.3-7.2V61.8C-69.1,58.4-71.3,55.4-74.5,54.6z M-127.4,22.6l0.2-0.1L-94.8,9c0.9-0.4,1.9-0.3,2.7,0.1
				c0.9,0.5,1.5,1.3,1.8,2.3l6.3,21h-66.9L-127.4,22.6L-127.4,22.6z M-162.6,22.6h28.6l-23.3,9.8h-5.2c-2.7-0.4-4.6-2.8-4.2-5.5
				C-166.6,24.6-164.8,22.9-162.6,22.6L-162.6,22.6L-162.6,22.6z M-76.8,97.3c0.2,3.2-2.2,6-5.5,6.2h-79.1c-3.2-0.2-5.7-3-5.5-6.2
				V33.1c1.1,1.2,2.7,1.8,4.3,1.8h80.3c3.2,0.2,5.7,3,5.5,6.2v13.3h-17.9c-7.3,0-13.2,6.7-13.2,15s5.9,15,13.2,15h17.9V97.3
				L-76.8,97.3z M-71.5,77.2c0.1,2.4-1.7,4.6-4.2,4.7h-19.1c-6,0-10.9-5.6-10.9-12.4s4.9-12.4,10.9-12.4h19.1
				c2.4,0.2,4.3,2.3,4.2,4.7L-71.5,77.2L-71.5,77.2z"/>
		</g>
	</g>
</g>
<g id="Grupo_670" transform="translate(-51.711 -356)">
	<g id="Grupo_669" transform="translate(51.711 356)">
		<g>
			<defs>
				<rect id="SVGID_1_" x="9.6" y="9" width="84.5" height="85.8"/>
			</defs>
			<clipPath id="SVGID_00000142891395672150691190000017633018516131202225_">
				<use xlink:href="#SVGID_1_"  style="overflow:visible;"/>
			</clipPath>
			<g id="Grupo_668" style="clip-path:url(#SVGID_00000142891395672150691190000017633018516131202225_);">
				<g id="Trazado_1211">
					<path class="st0" d="M54.7,94.7h-45V15.5c0-3.6,2.9-6.4,6.4-6.4h32.1c3.6,0,6.4,2.9,6.4,6.4V94.7z M11.4,93h41.7V15.5
						c0-2.7-2.2-4.8-4.8-4.8H16.2c-2.7,0-4.8,2.2-4.8,4.8V93z"/>
				</g>
				<g id="Rectángulo_458">
					<path class="st0" d="M94,94.7h-41V27h41V94.7z M54.7,93h37.7V28.6H54.7V93z"/>
				</g>
				<g id="Línea_36">
					<path class="st0" d="M24.9,20.8h-6.3c-0.4,0-0.8-0.4-0.8-0.8s0.4-0.8,0.8-0.8h6.3c0.4,0,0.8,0.4,0.8,0.8S25.3,20.8,24.9,20.8z"
						/>
				</g>
				<g id="Línea_37">
					<path class="st0" d="M35.1,20.8h-6.3c-0.4,0-0.8-0.4-0.8-0.8s0.4-0.8,0.8-0.8h6.3c0.4,0,0.8,0.4,0.8,0.8S35.6,20.8,35.1,20.8z"
						/>
				</g>
				<g id="Línea_38">
					<path class="st0" d="M45.4,20.8h-6.3c-0.4,0-0.8-0.4-0.8-0.8s0.4-0.8,0.8-0.8h6.3c0.4,0,0.8,0.4,0.8,0.8S45.8,20.8,45.4,20.8z"
						/>
				</g>
				<g id="Línea_39">
					<path class="st0" d="M24.9,27.3h-6.3c-0.4,0-0.8-0.4-0.8-0.8s0.4-0.8,0.8-0.8h6.3c0.4,0,0.8,0.4,0.8,0.8S25.3,27.3,24.9,27.3z"
						/>
				</g>
				<g id="Línea_40">
					<path class="st0" d="M35.1,27.3h-6.3c-0.4,0-0.8-0.4-0.8-0.8s0.4-0.8,0.8-0.8h6.3c0.4,0,0.8,0.4,0.8,0.8S35.6,27.3,35.1,27.3z"
						/>
				</g>
				<g id="Línea_41">
					<path class="st0" d="M45.4,27.3h-6.3c-0.4,0-0.8-0.4-0.8-0.8s0.4-0.8,0.8-0.8h6.3c0.4,0,0.8,0.4,0.8,0.8S45.8,27.3,45.4,27.3z"
						/>
				</g>
				<g id="Línea_42">
					<path class="st0" d="M24.9,33.7h-6.3c-0.4,0-0.8-0.4-0.8-0.8s0.4-0.8,0.8-0.8h6.3c0.4,0,0.8,0.4,0.8,0.8S25.3,33.7,24.9,33.7z"
						/>
				</g>
				<g id="Línea_43">
					<path class="st0" d="M35.1,33.7h-6.3c-0.4,0-0.8-0.4-0.8-0.8s0.4-0.8,0.8-0.8h6.3c0.4,0,0.8,0.4,0.8,0.8S35.6,33.7,35.1,33.7z"
						/>
				</g>
				<g id="Línea_44">
					<path class="st0" d="M45.4,33.7h-6.3c-0.4,0-0.8-0.4-0.8-0.8s0.4-0.8,0.8-0.8h6.3c0.4,0,0.8,0.4,0.8,0.8S45.8,33.7,45.4,33.7z"
						/>
				</g>
				<g id="Línea_45">
					<path class="st0" d="M24.9,40.2h-6.3c-0.4,0-0.8-0.4-0.8-0.8s0.4-0.8,0.8-0.8h6.3c0.4,0,0.8,0.4,0.8,0.8S25.3,40.2,24.9,40.2z"
						/>
				</g>
				<g id="Línea_46">
					<path class="st0" d="M35.1,40.2h-6.3c-0.4,0-0.8-0.4-0.8-0.8s0.4-0.8,0.8-0.8h6.3c0.4,0,0.8,0.4,0.8,0.8S35.6,40.2,35.1,40.2z"
						/>
				</g>
				<g id="Línea_47">
					<path class="st0" d="M45.4,40.2h-6.3c-0.4,0-0.8-0.4-0.8-0.8s0.4-0.8,0.8-0.8h6.3c0.4,0,0.8,0.4,0.8,0.8S45.8,40.2,45.4,40.2z"
						/>
				</g>
				<g id="Línea_48">
					<path class="st0" d="M24.9,46.7h-6.3c-0.4,0-0.8-0.4-0.8-0.8c0-0.4,0.4-0.8,0.8-0.8h6.3c0.4,0,0.8,0.4,0.8,0.8
						C25.7,46.3,25.3,46.7,24.9,46.7z"/>
				</g>
				<g id="Línea_49">
					<path class="st0" d="M35.1,46.7h-6.3c-0.4,0-0.8-0.4-0.8-0.8c0-0.4,0.4-0.8,0.8-0.8h6.3c0.4,0,0.8,0.4,0.8,0.8
						C35.9,46.3,35.6,46.7,35.1,46.7z"/>
				</g>
				<g id="Línea_50">
					<path class="st0" d="M45.4,46.7h-6.3c-0.4,0-0.8-0.4-0.8-0.8c0-0.4,0.4-0.8,0.8-0.8h6.3c0.4,0,0.8,0.4,0.8,0.8
						C46.2,46.3,45.8,46.7,45.4,46.7z"/>
				</g>
				<g id="Línea_51">
					<path class="st0" d="M24.9,53.2h-6.3c-0.4,0-0.8-0.4-0.8-0.8c0-0.4,0.4-0.8,0.8-0.8h6.3c0.4,0,0.8,0.4,0.8,0.8
						C25.7,52.8,25.3,53.2,24.9,53.2z"/>
				</g>
				<g id="Línea_52">
					<path class="st0" d="M35.1,53.2h-6.3c-0.4,0-0.8-0.4-0.8-0.8c0-0.4,0.4-0.8,0.8-0.8h6.3c0.4,0,0.8,0.4,0.8,0.8
						C35.9,52.8,35.6,53.2,35.1,53.2z"/>
				</g>
				<g id="Línea_53">
					<path class="st0" d="M45.4,53.2h-6.3c-0.4,0-0.8-0.4-0.8-0.8c0-0.4,0.4-0.8,0.8-0.8h6.3c0.4,0,0.8,0.4,0.8,0.8
						C46.2,52.8,45.8,53.2,45.4,53.2z"/>
				</g>
				<g id="Línea_54">
					<path class="st0" d="M24.9,59.6h-6.3c-0.4,0-0.8-0.4-0.8-0.8c0-0.4,0.4-0.8,0.8-0.8h6.3c0.4,0,0.8,0.4,0.8,0.8
						C25.7,59.3,25.3,59.6,24.9,59.6z"/>
				</g>
				<g id="Línea_55">
					<path class="st0" d="M35.1,59.6h-6.3c-0.4,0-0.8-0.4-0.8-0.8c0-0.4,0.4-0.8,0.8-0.8h6.3c0.4,0,0.8,0.4,0.8,0.8
						C35.9,59.3,35.6,59.6,35.1,59.6z"/>
				</g>
				<g id="Línea_56">
					<path class="st0" d="M45.4,59.6h-6.3c-0.4,0-0.8-0.4-0.8-0.8c0-0.4,0.4-0.8,0.8-0.8h6.3c0.4,0,0.8,0.4,0.8,0.8
						C46.2,59.3,45.8,59.6,45.4,59.6z"/>
				</g>
				<g id="Línea_57">
					<path class="st0" d="M24.9,66.1h-6.3c-0.4,0-0.8-0.4-0.8-0.8s0.4-0.8,0.8-0.8h6.3c0.4,0,0.8,0.4,0.8,0.8S25.3,66.1,24.9,66.1z"
						/>
				</g>
				<g id="Línea_58">
					<path class="st0" d="M35.1,66.1h-6.3c-0.4,0-0.8-0.4-0.8-0.8s0.4-0.8,0.8-0.8h6.3c0.4,0,0.8,0.4,0.8,0.8S35.6,66.1,35.1,66.1z"
						/>
				</g>
				<g id="Línea_59">
					<path class="st0" d="M45.4,66.1h-6.3c-0.4,0-0.8-0.4-0.8-0.8s0.4-0.8,0.8-0.8h6.3c0.4,0,0.8,0.4,0.8,0.8S45.8,66.1,45.4,66.1z"
						/>
				</g>
				<g id="Línea_60">
					<path class="st0" d="M84.5,36H60.7c-0.4,0-0.8-0.4-0.8-0.8s0.4-0.8,0.8-0.8h23.8c0.4,0,0.8,0.4,0.8,0.8S85,36,84.5,36z"/>
				</g>
				<g id="Línea_61">
					<path class="st0" d="M84.5,41.6H60.7c-0.4,0-0.8-0.4-0.8-0.8c0-0.4,0.4-0.8,0.8-0.8h23.8c0.4,0,0.8,0.4,0.8,0.8
						C85.3,41.3,85,41.6,84.5,41.6z"/>
				</g>
				<g id="Línea_62">
					<path class="st0" d="M84.5,47.2H60.7c-0.4,0-0.8-0.4-0.8-0.8c0-0.4,0.4-0.8,0.8-0.8h23.8c0.4,0,0.8,0.4,0.8,0.8
						C85.3,46.8,85,47.2,84.5,47.2z"/>
				</g>
				<g id="Línea_63">
					<path class="st0" d="M84.5,52.8H60.7c-0.4,0-0.8-0.4-0.8-0.8c0-0.4,0.4-0.8,0.8-0.8h23.8c0.4,0,0.8,0.4,0.8,0.8
						C85.3,52.4,85,52.8,84.5,52.8z"/>
				</g>
				<g id="Línea_64">
					<path class="st0" d="M84.5,58.3H60.7c-0.4,0-0.8-0.4-0.8-0.8c0-0.4,0.4-0.8,0.8-0.8h23.8c0.4,0,0.8,0.4,0.8,0.8
						C85.3,58,85,58.3,84.5,58.3z"/>
				</g>
				<g id="Línea_65">
					<path class="st0" d="M84.5,63.9H60.7c-0.4,0-0.8-0.4-0.8-0.8s0.4-0.8,0.8-0.8h23.8c0.4,0,0.8,0.4,0.8,0.8S85,63.9,84.5,63.9z"
						/>
				</g>
				<g id="Línea_66">
					<path class="st0" d="M84.5,69.5H60.7c-0.4,0-0.8-0.4-0.8-0.8c0-0.4,0.4-0.8,0.8-0.8h23.8c0.4,0,0.8,0.4,0.8,0.8
						C85.3,69.1,85,69.5,84.5,69.5z"/>
				</g>
				<g id="Línea_67">
					<path class="st0" d="M84.5,75.1H60.7c-0.4,0-0.8-0.4-0.8-0.8c0-0.4,0.4-0.8,0.8-0.8h23.8c0.4,0,0.8,0.4,0.8,0.8
						C85.3,74.7,85,75.1,84.5,75.1z"/>
				</g>
				<g id="Línea_68">
					<path class="st0" d="M84.5,80.6H60.7c-0.4,0-0.8-0.4-0.8-0.8c0-0.4,0.4-0.8,0.8-0.8h23.8c0.4,0,0.8,0.4,0.8,0.8
						C85.3,80.3,85,80.6,84.5,80.6z"/>
				</g>
				<g id="Rectángulo_459">
					<path class="st0" d="M45.4,94.7H18.6V71.3h26.8V94.7z M20.3,93h23.5V72.9H20.3V93z"/>
				</g>
			</g>
		</g>
	</g>
</g>
</svg>
