<?xml version="1.0" encoding="UTF-8"?>
<svg id="Capa_2" data-name="Capa 2" xmlns="http://www.w3.org/2000/svg" viewBox="0 0 100 99.97">
  <defs>
    <style>
      .cls-1 {
        fill: #fff;
      }
    </style>
  </defs>
  <g id="Capa_2-2" data-name="Capa 2">
    <g id="Grupo_89" data-name="Grupo 89">
      <g id="Grupo_87" data-name="Grupo 87">
        <path id="Trazado_176" data-name="Trazado 176" class="cls-1" d="M42.03,13.68v.09h-.23l.23-.09Z"/>
      </g>
      <g id="Grupo_88" data-name="Grupo 88">
        <path id="Trazado_177" data-name="Trazado 177" class="cls-1" d="M94.68,48.5v-13.42c.21-4.24-2.75-7.99-6.93-8.76l-6.62-21.87c-.45-1.61-1.52-2.98-2.98-3.8-1.37-.76-3.02-.85-4.47-.23L41.39,13.9H6.6C2.72,14.17-.21,17.5,.01,21.37V91.16c-.27,4.57,3.19,8.5,7.76,8.81H86.91c4.56-.32,8.02-4.25,7.76-8.81v-12.86c3.25-.84,5.47-3.84,5.33-7.2v-15.41c.14-3.35-2.07-6.35-5.32-7.19ZM41.8,16.5l.25-.1L74.46,2.85c.87-.37,1.87-.32,2.7,.14,.88,.49,1.53,1.32,1.8,2.29l6.35,20.98H18.45l23.34-9.75Zm-35.19,0h28.57L11.84,26.26H6.6c-2.69-.35-4.6-2.81-4.25-5.5,.28-2.22,2.03-3.97,4.25-4.25h0ZM92.39,91.17c.19,3.22-2.25,6-5.47,6.22H7.78c-3.22-.22-5.66-2.99-5.47-6.22V27.04c1.14,1.15,2.68,1.8,4.3,1.82H86.92c3.22,.22,5.66,2.99,5.47,6.22v13.31h-17.9c-7.29,0-13.23,6.74-13.23,15.02s5.93,15.02,13.23,15.02h17.9v12.75Zm5.32-20.06c.14,2.45-1.71,4.55-4.16,4.72h-19.07c-6.03,0-10.94-5.57-10.94-12.43s4.91-12.43,10.94-12.43h19.07c2.44,.17,4.3,2.27,4.16,4.72v15.41Z"/>
      </g>
    </g>
  </g>
</svg>