<svg xmlns="http://www.w3.org/2000/svg" xmlns:xlink="http://www.w3.org/1999/xlink" width="56" height="55" viewBox="0 0 56 55">
  <defs>
    <clipPath id="clip-path">
      <rect id="Rectángulo_39" data-name="Rectángulo 39" width="32.362" height="18.515" fill="#a10268"/>
    </clipPath>
    <clipPath id="clip-Mesa_de_trabajo_1">
      <rect width="56" height="55"/>
    </clipPath>
  </defs>
  <g id="Mesa_de_trabajo_1" data-name="Mesa de trabajo – 1" clip-path="url(#clip-Mesa_de_trabajo_1)">
    <rect width="56" height="55" fill="#fff"/>
    <g id="Grupo_1878" data-name="Grupo 1878" transform="translate(-533.871 -967.5)">
      <text id="Volver" transform="translate(717 1007.001)" fill="#a10268" font-size="30" font-family="Poppins-Medium, Poppins" font-weight="500"><tspan x="0" y="0">Volver</tspan></text>
      <g id="Grupo_52" data-name="Grupo 52" transform="translate(569.258 980.319) rotate(90)" clip-path="url(#clip-path)">
        <path id="Trazado_140" data-name="Trazado 140" d="M2.414.01a2.5,2.5,0,0,1,1.8.912q5.645,5.663,11.306,11.31c.754.753.576.754,1.327,0q5.7-5.694,11.4-11.394a2.324,2.324,0,0,1,3.5-.088,2.3,2.3,0,0,1,.109,3,7.37,7.37,0,0,1-.518.549q-6.588,6.59-13.178,13.178c-1.381,1.381-2.574,1.381-3.955,0Q7.527,10.8.852,4.122A2.317,2.317,0,0,1,.8.578,2.234,2.234,0,0,1,2.414.01" transform="translate(0 0)" fill="#a10268"/>
      </g>
    </g>
  </g>
</svg>
